<?xml version="1.0" encoding="UTF-8"?>
<svg id="a" data-name="Layer 1 copy" xmlns="http://www.w3.org/2000/svg" viewBox="0 0 1622.73 1932.8">
  <defs>
    <style>
      .b {
        fill: #5494da;
        animation: slideInFade 2s ease forwards;
      }

      .c {
        fill: #1750ac;
        animation: slideInFade 2s ease forwards;
        animation-delay: 0.5s;
      }

      .d {
        fill: #86cefa;
        animation: slideInFade 2s ease forwards;
        animation-delay: 1s;
      }

      .b, .c, .d {
        fill-rule: evenodd;
        opacity: 0;
        transform: translateY(50px);
      }

      @keyframes slideInFade {
        0% {
          opacity: 0;
          transform: translateY(50px);
        }
        100% {
          opacity: 1;
          transform: translateY(0);
        }
      }
    </style>
  </defs>
  <polygon class="d" points="912.79 58.34 912.79 175.42 912.22 175.75 912.22 175.77 912.19 175.77 810.8 234.32 810.77 234.32 709.37 292.87 709.35 292.87 607.95 351.42 506.53 409.97 405.11 468.54 304.96 526.35 303.69 527.09 202.29 468.54 202.65 468.33 203.56 467.8 303.69 409.99 303.71 409.99 405.11 351.44 405.13 351.44 506.53 292.89 506.53 292.87 506.55 292.87 607.95 234.32 709.37 175.77 810.8 117.23 912.22 58.68 912.22 58.66 912.6 58.44 912.79 58.34"/>
  <polygon class="d" points="175.37 366.72 101.91 409.13 101.44 408.85 202.84 350.3 202.86 350.3 304.26 291.75 304.28 291.75 405.68 233.2 405.68 233.18 405.7 233.18 507.1 174.63 580.57 132.23 581.06 132.5 479.64 191.05 479.64 191.07 378.24 249.6 378.21 249.6 378.21 249.62 175.37 366.72"/>
  <polygon class="d" points="1622.73 467.42 1622.73 584.52 1521.31 643.07 1521.31 643.09 1419.89 701.64 1318.47 760.19 1115.63 877.29 1115.63 877.31 912.79 994.41 811.37 1052.96 811.37 935.86 912.79 877.29 1115.63 760.19 1217.05 701.64 1217.05 701.62 1318.47 643.09 1318.47 643.07 1419.89 584.52 1622.73 467.42"/>
  <polygon class="d" points="202.84 703.14 202.84 1522.92 101.44 1581.47 101.42 1581.47 101.42 761.69 202.84 703.14"/>
  <polygon class="b" points="608.52 1640.04 608.52 1757.14 507.12 1698.59 507.1 1698.59 507.1 1698.56 405.7 1640.02 405.68 1640.02 304.28 1581.47 405.68 1522.92 507.1 1581.49 608.52 1640.04"/>
  <polygon class="d" points="405.68 1054.48 405.68 1522.92 304.28 1581.47 304.26 1581.47 304.26 995.91 405.68 1054.48"/>
  <polygon class="b" points="912.79 58.55 811.37 117.1 811.37 117.12 709.97 175.65 709.95 175.65 709.95 175.67 507.1 292.77 405.68 351.32 405.68 351.34 203.73 467.93 202.84 468.44 202.65 468.33 203.56 467.8 202.84 467.4 304.26 408.85 405.68 350.28 507.1 291.73 608.5 233.18 608.52 233.18 709.92 174.63 709.95 174.63 811.34 116.08 811.37 116.08 811.37 116.06 911.88 58.02 912.6 58.44 912.79 58.55"/>
  <polygon class="b" points=".49 467.7 0 467.99 0 467.42 .02 467.42 .49 467.7"/>
  <polygon class="b" points="1622.73 702.99 1521.31 761.54 1521.31 761.56 1419.91 820.09 1419.89 820.09 1419.89 820.11 1217.05 937.21 1115.63 995.76 1115.63 995.78 912.79 1112.88 811.37 1054.33 912.79 995.76 1014.21 937.21 1217.05 820.11 1217.05 820.09 1217.07 820.09 1318.47 761.54 1419.89 702.99 1521.31 644.44 1622.73 702.99"/>
  <polygon class="b" points="1521.31 408.85 1521.31 525.97 1419.89 584.52 1318.47 643.07 1318.47 643.09 1217.05 701.62 1217.05 701.64 1115.63 760.19 912.79 877.29 811.37 935.86 709.95 877.29 507.1 760.19 405.68 701.62 304.26 643.07 202.84 584.52 101.42 525.97 101.42 525.95 .49 467.7 73.95 425.29 73.95 425.27 101.42 409.42 101.42 409.89 102.33 409.36 202.84 351.32 304.26 292.77 507.1 175.67 507.1 175.65 507.12 175.65 608.52 117.1 709.95 58.55 811.37 0 911.88 58.02 811.37 116.06 811.37 116.08 811.34 116.08 709.95 174.63 709.92 174.63 608.52 233.18 608.5 233.18 507.1 291.73 405.68 350.28 304.26 408.85 202.84 467.4 203.56 467.8 202.65 468.33 202.29 468.54 303.69 527.09 304.96 526.35 405.68 584.52 507.1 643.07 608.52 701.62 709.95 760.19 811.37 818.74 912.79 760.19 1014.21 701.64 1014.21 701.62 1115.63 643.07 1217.03 584.52 1217.05 584.52 1419.89 467.42 1419.89 467.4 1521.31 408.85"/>
  <polygon class="b" points="101.91 409.13 102.33 409.36 101.42 409.89 101.42 409.42 101.91 409.13"/>
  <polygon class="b" points="304.26 525.95 304.96 526.35 303.69 527.09 202.29 468.54 202.65 468.33 203.56 467.8 203.73 467.93 304.26 525.95"/>
  <polygon class="b" points="1622.73 465.84 1622.73 467.42 1521.31 525.97 1521.31 408.85 1522.66 408.07 1622.73 465.84"/>
  <polygon class="c" points="811.37 935.86 811.37 1052.96 709.95 994.41 608.52 935.86 507.1 877.29 304.26 760.19 202.84 701.62 101.42 643.07 0 584.52 0 467.42 .02 467.42 .49 467.7 101.42 525.95 101.42 525.97 202.84 584.52 304.26 643.07 405.68 701.62 507.1 760.19 709.95 877.29 811.37 935.86"/>
  <path class="d" d="M1521.31,761.69v.02l-101.4,58.53h-.02v.02l-202.84,117.1-101.42,58.55v.02l-202.84,117.1v819.78l101.4-58.55h.02v-.02l101.4-58.55h.02l202.84-117.1v-.02l202.84-117.1,101.42-58.55V703.14l-101.42,58.55Zm0,702.68l-101.42,58.55-101.42,58.55-202.84,117.1v.02h-.02l-101.4,58.55v-585.56l101.42-58.55,202.84-117.1v-.02h.02l101.4-58.55,101.42-58.55v585.56Z"/>
  <polygon class="b" points="1521.31 1464.35 1521.31 1464.37 1419.89 1522.92 1318.47 1581.47 1115.63 1698.56 1115.63 1698.59 1115.61 1698.59 1014.21 1757.14 1014.21 1640.02 1115.61 1581.47 1115.63 1581.47 1217.05 1522.92 1217.05 1522.9 1318.47 1464.35 1419.89 1405.8 1521.31 1464.35"/>
  <polygon class="c" points="1521.31 878.81 1521.31 1464.35 1419.89 1405.8 1419.89 937.36 1521.31 878.81"/>
  <polygon class="b" points="811.37 1054.48 709.95 1113.03 608.52 1054.48 507.1 995.91 405.68 937.36 304.26 878.81 202.84 820.24 304.26 761.69 405.68 820.24 507.1 878.81 608.52 937.36 709.95 995.91 811.37 1054.48"/>
  <polygon class="b" points="202.84 703.14 101.42 761.69 0 703.14 101.42 644.59 202.84 703.14"/>
  <polygon class="d" points="811.37 1054.48 811.37 1171.58 709.95 1230.15 709.95 1113.03 811.37 1054.48"/>
  <polygon class="c" points="304.26 1581.47 304.28 1581.47 405.68 1640.02 405.68 1640.04 405.7 1640.02 507.1 1698.56 507.1 1698.59 507.12 1698.59 608.52 1757.14 608.52 1640.04 507.1 1581.49 507.1 1464.37 608.52 1522.92 709.95 1581.49 709.95 1932.78 608.52 1874.23 507.1 1815.68 405.7 1757.14 405.68 1757.14 304.28 1698.59 304.26 1698.59 304.26 1698.56 202.86 1640.02 202.84 1640.02 202.84 820.24 304.26 878.81 405.68 937.36 507.1 995.91 608.52 1054.48 709.95 1113.03 709.95 1230.15 608.52 1171.58 507.1 1113.03 405.68 1054.48 304.26 995.91 304.26 1581.47"/>
  <polygon class="b" points="811.37 1522.92 709.95 1581.49 608.52 1522.92 507.1 1464.37 608.52 1405.82 811.37 1522.92"/>
  <polygon class="c" points="101.42 525.95 101.42 644.11 .02 585.56 0 585.56 0 467.42 .02 467.42 .49 467.7 101.42 525.95"/>
  <polygon class="c" points="101.42 761.69 101.42 1581.47 .02 1522.92 0 1522.92 0 703.14 101.42 761.69"/>
  <polygon class="d" points="811.37 1640.02 811.34 1640.02 811.37 1640.04 811.37 1874.23 709.95 1932.78 709.95 1581.49 811.37 1522.92 811.37 1640.02"/>
  <polygon class="c" points="912.79 1113.03 912.79 1932.8 912.77 1932.8 811.37 1874.25 811.37 1054.48 912.79 1113.03"/>
</svg>