<?xml version="1.0" encoding="UTF-8"?>
<svg id="b" data-name="Layer 1 copy" xmlns="http://www.w3.org/2000/svg" viewBox="0 0 1920 1080" style="background-color:212121">
  <defs>
    <style>
      .c {
        fill: #1750ac;
        font-family: SquareFont, SquareFont;
        font-size: 318px;
        stroke: #1750ac;
        stroke-miterlimit: 10;
      }

      .d {
        fill: #5494da;
      }

      .d, .e, .f {
        fill-rule: evenodd;
      }

      .e {
        fill: #1750ac;
      }

      .f {
        fill: #86cefa;
      }

      .animate-opacity {
        animation: fadeIn 1.5s linear forwards;
      }

      .animate-font {
        animation: fadeInSlideIn 1.5s linear 1.5s forwards;
        opacity: 0;
      }

      @keyframes fadeIn {
        0% {
          opacity: 0;
        }
        100% {
          opacity: 1;
        }
      }

      @keyframes fadeInSlideIn {
        0% {
          opacity: 0;
          transform: translateX(50%);
        }
        100% {
          opacity: 1;
          transform: translateX(0%);
        }
      }
    </style>
  </defs>
  <g class="animate-opacity">
    <polygon class="f" points="233.13 336.61 233.13 366.51 232.98 366.6 232.98 366.6 232.97 366.6 207.08 381.56 207.07 381.56 181.17 396.51 181.17 396.51 155.27 411.46 129.37 426.42 103.47 441.38 77.89 456.14 77.56 456.33 51.67 441.38 51.76 441.32 51.99 441.19 77.56 426.42 77.57 426.42 103.47 411.47 103.47 411.47 129.37 396.52 129.37 396.51 129.37 396.51 155.27 381.56 181.17 366.6 207.08 351.65 232.98 336.7 232.98 336.69 233.08 336.64 233.13 336.61"/>
    <polygon class="f" points="44.79 415.37 26.03 426.2 25.91 426.13 51.81 411.18 51.81 411.18 77.71 396.22 77.71 396.22 103.61 381.27 103.61 381.27 103.62 381.27 129.51 366.31 148.28 355.48 148.4 355.55 122.5 370.5 122.5 370.51 96.6 385.46 96.6 385.46 96.6 385.46 44.79 415.37"/>
    <polygon class="f" points="414.45 441.09 414.45 471 388.54 485.95 388.54 485.96 362.64 500.91 336.74 515.86 284.93 545.77 284.93 545.78 233.13 575.68 207.22 590.64 207.22 560.73 233.13 545.77 284.93 515.86 310.83 500.91 310.83 500.9 336.74 485.96 336.74 485.95 362.64 471 414.45 441.09"/>
    <polygon class="f" points="51.81 501.29 51.81 710.66 25.91 725.62 25.9 725.62 25.9 516.25 51.81 501.29"/>
    <polygon class="d" points="155.42 740.58 155.42 770.48 129.52 755.53 129.51 755.53 129.51 755.52 103.62 740.57 103.61 740.57 77.71 725.62 103.61 710.66 129.51 725.62 155.42 740.58"/>
    <polygon class="f" points="103.61 591.02 103.61 710.66 77.71 725.62 77.71 725.62 77.71 576.07 103.61 591.02"/>
    <polygon class="d" points="233.13 336.66 207.22 351.62 207.22 351.62 181.33 366.57 181.32 366.57 181.32 366.58 129.51 396.48 103.61 411.44 103.61 411.44 52.03 441.22 51.81 441.35 51.76 441.32 51.99 441.19 51.81 441.08 77.71 426.13 103.61 411.17 129.51 396.22 155.41 381.27 155.42 381.27 181.31 366.31 181.32 366.31 207.22 351.36 207.22 351.36 207.22 351.35 232.89 336.53 233.08 336.64 233.13 336.66"/>
    <polygon class="d" points=".12 441.16 0 441.24 0 441.09 0 441.09 .12 441.16"/>
    <polygon class="d" points="414.45 501.25 388.54 516.21 388.54 516.21 362.65 531.16 362.64 531.16 362.64 531.17 310.83 561.07 284.93 576.03 284.93 576.03 233.13 605.94 207.22 590.99 233.13 576.03 259.03 561.07 310.83 531.17 310.83 531.16 310.84 531.16 336.74 516.21 362.64 501.25 388.54 486.3 414.45 501.25"/>
    <polygon class="d" points="388.54 426.13 388.54 456.04 362.64 471 336.74 485.95 336.74 485.96 310.83 500.9 310.83 500.91 284.93 515.86 233.13 545.77 207.22 560.73 181.32 545.77 129.51 515.86 103.61 500.9 77.71 485.95 51.81 471 25.9 456.04 25.9 456.04 .12 441.16 18.89 430.33 18.89 430.32 25.9 426.28 25.9 426.4 26.13 426.26 51.81 411.44 77.71 396.48 129.51 366.58 129.51 366.57 129.52 366.57 155.42 351.62 181.32 336.66 207.22 321.71 232.89 336.53 207.22 351.35 207.22 351.36 207.22 351.36 181.32 366.31 181.31 366.31 155.42 381.27 155.41 381.27 129.51 396.22 103.61 411.17 77.71 426.13 51.81 441.08 51.99 441.19 51.76 441.32 51.67 441.38 77.56 456.33 77.89 456.14 103.61 471 129.51 485.95 155.42 500.9 181.32 515.86 207.22 530.82 233.13 515.86 259.03 500.91 259.03 500.9 284.93 485.95 310.83 471 310.83 471 362.64 441.09 362.64 441.08 388.54 426.13"/>
    <polygon class="d" points="26.03 426.2 26.13 426.26 25.9 426.4 25.9 426.28 26.03 426.2"/>
    <polygon class="d" points="77.71 456.04 77.89 456.14 77.56 456.33 51.67 441.38 51.76 441.32 51.99 441.19 52.03 441.22 77.71 456.04"/>
    <polygon class="d" points="414.45 440.69 414.45 441.09 388.54 456.04 388.54 426.13 388.89 425.93 414.45 440.69"/>
    <polygon class="e" points="207.22 560.73 207.22 590.64 181.32 575.68 155.42 560.73 129.51 545.77 77.71 515.86 51.81 500.9 25.9 485.95 0 471 0 441.09 0 441.09 .12 441.16 25.9 456.04 25.9 456.04 51.81 471 77.71 485.95 103.61 500.9 129.51 515.86 181.32 545.77 207.22 560.73"/>
    <path class="f" d="M388.54,516.25h0s-25.9,14.95-25.9,14.95h0s-51.81,29.91-51.81,29.91l-25.9,14.95h0s-51.81,29.91-51.81,29.91v209.37l25.9-14.95h0s25.9-14.96,25.9-14.96h0l51.81-29.91h0s51.81-29.91,51.81-29.91l25.9-14.95v-209.37l-25.9,14.95Zm0,179.46l-25.9,14.95-25.9,14.95-51.81,29.91h0s0,0,0,0l-25.9,14.95v-149.55l25.9-14.95,51.81-29.91h0s0,0,0,0l25.9-14.95,25.9-14.95v149.55Z"/>
    <polygon class="d" points="388.54 695.7 388.54 695.71 362.64 710.66 336.74 725.62 284.93 755.52 284.93 755.53 284.93 755.53 259.03 770.48 259.03 740.57 284.93 725.62 284.93 725.62 310.83 710.66 310.83 710.66 336.74 695.7 362.64 680.75 388.54 695.7"/>
    <polygon class="e" points="388.54 546.16 388.54 695.7 362.64 680.75 362.64 561.11 388.54 546.16"/>
    <polygon class="d" points="207.22 591.02 181.32 605.98 155.42 591.02 129.51 576.07 103.61 561.11 77.71 546.16 51.81 531.2 77.71 516.25 103.61 531.2 129.51 546.16 155.42 561.11 181.32 576.07 207.22 591.02"/>
    <polygon class="d" points="51.81 501.29 25.9 516.25 0 501.29 25.9 486.34 51.81 501.29"/>
    <polygon class="f" points="207.22 591.02 207.22 620.93 181.32 635.89 181.32 605.98 207.22 591.02"/>
    <polygon class="e" points="77.71 725.62 77.71 725.62 103.61 740.57 103.61 740.58 103.62 740.57 129.51 755.52 129.51 755.53 129.52 755.53 155.42 770.48 155.42 740.58 129.51 725.62 129.51 695.71 155.42 710.66 181.32 725.62 181.32 815.34 155.42 800.39 129.51 785.44 103.62 770.48 103.61 770.48 77.71 755.53 77.71 755.53 77.71 755.52 51.81 740.57 51.81 740.57 51.81 531.2 77.71 546.16 103.61 561.11 129.51 576.07 155.42 591.02 181.32 605.98 181.32 635.89 155.42 620.93 129.51 605.98 103.61 591.02 77.71 576.07 77.71 725.62"/>
    <polygon class="d" points="207.22 710.66 181.32 725.62 155.42 710.66 129.51 695.71 155.42 680.76 207.22 710.66"/>
    <polygon class="e" points="25.9 456.04 25.9 486.21 0 471.26 0 471.26 0 441.09 0 441.09 .12 441.16 25.9 456.04"/>
    <polygon class="e" points="25.9 516.25 25.9 725.62 0 710.66 0 710.66 0 501.29 25.9 516.25"/>
    <polygon class="f" points="207.22 740.57 207.22 740.57 207.22 740.58 207.22 800.39 181.32 815.34 181.32 725.62 207.22 710.66 207.22 740.57"/>
    <polygon class="e" points="233.13 605.98 233.13 815.35 233.12 815.35 207.22 800.4 207.22 591.02 233.13 605.98"/>  </g>
  <g class="animate-font">
  <text class="c" transform="translate(546 687.3)"><tspan x="0" y="0">CIGO</tspan></text>
  <text/>  </g>
</svg>